<svg xmlns="http://www.w3.org/2000/svg" width="12" height="12" viewBox="0 0 12 12">
    <path fill="#999" fill-rule="nonzero" d="M3.75 7.5h.281v.375c0 .207.168.375.375.375h.938a.375.375 0 0 0 .375-.375V7.5H6a.75.75 0 0 0 .75-.75V1.5A.75.75 0 0 0 6 .75V.375A.375.375 0 0 0 5.625 0h-1.5a.375.375 0 0 0-.375.375V.75A.75.75 0 0 0 3 1.5v5.25c0 .414.336.75.75.75zm7.125 3h-.03A4.477 4.477 0 0 0 12 7.5C12 5.018 9.982 3 7.5 3v1.5c1.654 0 3 1.346 3 3s-1.346 3-3 3H1.125C.504 10.5 0 11.004 0 11.625c0 .207.168.375.375.375h11.25a.375.375 0 0 0 .375-.375c0-.621-.504-1.125-1.125-1.125zm-8.438-.75h4.876a.187.187 0 0 0 .187-.188v-.374A.187.187 0 0 0 7.312 9H2.438a.187.187 0 0 0-.187.188v.374c0 .104.084.188.188.188z"/>
</svg>
