<svg xmlns="http://www.w3.org/2000/svg" width="12" height="12" viewBox="0 0 12 12">
    <path fill="#999" fill-rule="nonzero" d="M9.11 7.055c-.924-.672-1.489-1.446-1.69-2.32-.185-.75-.101-1.508.252-2.274A4.64 4.64 0 0 1 9.048.703C9.645.235 10.213 0 10.752 0c.168 0 .31.055.428.164.118.11.177.242.177.399v10.875a.524.524 0 0 1-.177.398.608.608 0 0 1-.428.164H9.338a.598.598 0 0 1-.455-.187.515.515 0 0 1-.15-.422l.378-4.336zM6.108.352C6.073.212 5.964.109 5.78.047a.886.886 0 0 0-.568 0c-.194.062-.299.171-.315.328V3.68c-.017.047-.084.07-.202.07-.118 0-.185-.016-.202-.047L4.289.375C4.256.218 4.147.109 3.962.047a.847.847 0 0 0-.556 0c-.185.062-.294.171-.328.328l-.202 3.328c-.016.031-.084.047-.202.047-.118 0-.185-.023-.202-.07V.375C2.455.218 2.35.109 2.157.047a.886.886 0 0 0-.568 0c-.185.062-.294.164-.328.305C.99 1.836.857 2.843.857 3.375c0 .594.156 1.105.467 1.535.311.43.737.738 1.274.926l-.327 5.578a.468.468 0 0 0 .163.41.627.627 0 0 0 .442.176h1.616a.627.627 0 0 0 .441-.176.468.468 0 0 0 .164-.41L4.77 5.836a2.575 2.575 0 0 0 1.274-.926c.311-.43.467-.941.467-1.535 0-.532-.134-1.539-.404-3.023z"/>
</svg>
