<svg xmlns="http://www.w3.org/2000/svg" width="12" height="12" viewBox="0 0 12 12">
    <path fill="#999" fill-rule="nonzero" d="M8.278 2.856c-.198 0-.373-.14-.373-.312V.857H2.087c-.197 0-.373.14-.373.312v9.62c0 .172.167.322.364.323l7.865.03h.001a.374.374 0 0 0 .245-.1.308.308 0 0 0 .097-.232V2.856H8.278zm.024 5.538H3.587c-.197 0-.357-.14-.357-.312s.16-.312.357-.312h4.715c.197 0 .357.14.357.312 0 .173-.16.312-.357.312zm0-1.374H3.587c-.197 0-.357-.14-.357-.312 0-.173.16-.312.357-.312h4.715c.197 0 .357.14.357.312s-.16.312-.357.312zm0-1.374H3.587c-.197 0-.357-.14-.357-.312 0-.173.16-.313.357-.313h4.715c.197 0 .357.14.357.313 0 .172-.16.312-.357.312zm0-1.29H3.587c-.197 0-.357-.14-.357-.313s.16-.313.357-.313h4.715c.197 0 .357.14.357.313 0 .172-.16.312-.357.312zm1.854-1.785H8.209V.956l1.947 1.615z"/>
</svg>
