<svg xmlns="http://www.w3.org/2000/svg" width="12" height="12" viewBox="0 0 12 12">
    <path fill="#D6578B" fill-rule="nonzero" d="M10 7.076a.283.283 0 0 1-.283.281h-.94a.283.283 0 0 1-.283-.281v-.937c0-.155.127-.282.282-.282h.941c.156 0 .283.127.283.282v.937zm0 2.5c0 .155-.127.281-.283.281h-.94a.283.283 0 0 1-.283-.28v-.938c0-.155.127-.282.282-.282h.941c.156 0 .283.127.283.282v.937zM7.5 3.67a.188.188 0 0 1-.188.188H6.5v.812a.188.188 0 0 1-.188.187h-.625A.188.188 0 0 1 5.5 4.67v-.812h-.813A.188.188 0 0 1 4.5 3.67v-.625c0-.104.084-.188.187-.188H5.5v-.812c0-.103.084-.188.187-.188h.625c.104 0 .188.085.188.188v.812h.812c.103 0 .188.084.188.188v.625zm-.508 3.406c0 .155-.167.281-.372.281H5.38c-.205 0-.373-.126-.373-.281v-.937c0-.155.168-.282.372-.282H6.62c.205 0 .372.127.372.282v.937zm0 2.5c0 .155-.167.281-.372.281H5.38c-.205 0-.373-.126-.373-.28v-.938c0-.155.168-.282.372-.282H6.62c.205 0 .372.127.372.282v.937zm-3.486-2.5a.283.283 0 0 1-.283.281h-.94A.283.283 0 0 1 2 7.076v-.937c0-.155.127-.282.282-.282h.941c.156 0 .283.127.283.282v.937zm0 2.5c0 .155-.127.281-.283.281h-.94A.283.283 0 0 1 2 9.577v-.938c0-.155.127-.282.282-.282h.941c.156 0 .283.127.283.282v.937zm7.827-6.75H8.667V1.513A.661.661 0 0 0 8 .857H4a.66.66 0 0 0-.667.656v1.313H.667A.66.66 0 0 0 0 3.482v7.547c0 .18.15.328.333.328h11.334A.332.332 0 0 0 12 11.03V3.482a.661.661 0 0 0-.667-.656z"/>
</svg>
