<svg xmlns="http://www.w3.org/2000/svg" width="12" height="12" viewBox="0 0 12 12">
    <path fill="#8E5B9A" fill-rule="nonzero" d="M9.71 10.381h1.308v-6.9H9.71v6.9zM11.835 0H8.891c-.09 0-.163.079-.163.175V10.25c0 .965.734 1.75 1.636 1.75.902 0 1.636-.785 1.636-1.75V.175C12 .08 11.926 0 11.836 0zm-6.49 10.381h1.309v-4.5h-1.31v4.5zM7.472 0H4.528c-.09 0-.164.079-.164.175V10.25c0 .965.734 1.75 1.636 1.75.902 0 1.636-.785 1.636-1.75V.175C7.636.08 7.563 0 7.473 0zM.982 10.381H2.29v-5.7H.98v5.7zM3.109 0H.164C.074 0 0 .079 0 .175V10.25C0 11.215.734 12 1.636 12c.903 0 1.637-.785 1.637-1.75V.175C3.273.08 3.199 0 3.109 0z"/>
</svg>
