<svg xmlns="http://www.w3.org/2000/svg" width="12" height="12" viewBox="0 0 12 12">
    <path fill="#999" fill-rule="nonzero" d="M1.39 12.999a7.761 7.761 0 0 0 2.92-.851 7.753 7.753 0 0 0 2.37-1.903l.47-.56a.36.36 0 0 0 .082-.262c-.002-.021-.011-.148-.127-.244l-.22-.185-1.587.138a1.072 1.072 0 0 1-1.022-.526L1.084 12.41a.358.358 0 0 0-.043.397.357.357 0 0 0 .35.192m3.495-4.774a.36.36 0 0 1 .043-.397l5.411-6.45c.442-.525 1.186-.452 1.612-.092.284.239.725.966.189 1.603-.857 1.02-4.361 5.2-4.361 5.2a.361.361 0 0 1-.245.126l-2.3.201a.36.36 0 0 1-.35-.191"/>
</svg>
