<svg xmlns="http://www.w3.org/2000/svg" width="12" height="12" viewBox="0 0 12 12">
    <path fill="#999" fill-rule="nonzero" d="M11.706 3.449A1.057 1.057 0 0 0 11 3.2H1c-.275 0-.51.083-.706.249A.758.758 0 0 0 0 4.046V9.8c0 .233.098.432.294.598.196.165.431.248.706.248h3.4a.961.961 0 0 1-.1.413 3.5 3.5 0 0 1-.2.37c-.067.106-.1.183-.1.232 0 .092.04.172.119.238.079.067.173.101.281.101h3.2a.421.421 0 0 0 .281-.1.303.303 0 0 0 .12-.239c0-.045-.034-.122-.101-.23a3.62 3.62 0 0 1-.2-.375.969.969 0 0 1-.1-.41H11c.275 0 .51-.083.706-.248A.758.758 0 0 0 12 9.8V4.046a.758.758 0 0 0-.294-.597zM11.2 8.446c0 .046-.02.086-.06.12a.211.211 0 0 1-.14.05H1a.211.211 0 0 1-.14-.05.152.152 0 0 1-.06-.12v-4.4c0-.046.02-.085.06-.119a.211.211 0 0 1 .14-.05h10a.21.21 0 0 1 .14.05c.04.034.06.073.06.12v4.4zM6 2.867c.947 0 1.714-.641 1.714-1.433C7.714.64 6.947 0 6 0S4.286.641 4.286 1.434c0 .792.767 1.433 1.714 1.433zm1.029.562h-.112c-.278.14-.588.223-.917.223-.33 0-.638-.084-.917-.223H4.97c-.851 0-1.542.72-1.542 1.61v1.147c0 .37.288.671.642.671H7.93c.354 0 .642-.3.642-.67V5.038c0-.89-.69-1.61-1.542-1.61z"/>
</svg>
