<svg xmlns="http://www.w3.org/2000/svg" width="12" height="12" viewBox="0 0 12 12">
    <path fill="#8E5B9A" fill-rule="nonzero" d="M4.508 4.09h-.501v-.51a.506.506 0 0 0-.501-.512c-.276 0-.5.23-.5.512v.51h-.502c-.276 0-.5.23-.5.512 0 .283.224.512.5.512h.501v.511c0 .282.225.511.501.511s.5-.229.5-.511v-.511h.502c.276 0 .5-.23.5-.512a.506.506 0 0 0-.5-.511zm5.388-.412a.134.134 0 0 0-.205-.005l-.303.329a.165.165 0 0 0-.007.21 2.274 2.274 0 0 1 0 2.806.165.165 0 0 0 .007.21l.303.33c.057.062.15.06.205-.006.908-1.101.907-2.773 0-3.874zm1.01-1.073a.136.136 0 0 0-.204-.003l-.302.328a.163.163 0 0 0-.004.213c1.19 1.395 1.19 3.55 0 4.944a.164.164 0 0 0 .004.214l.302.328c.057.061.15.06.205-.004 1.458-1.693 1.457-4.327 0-6.02zM8.584 5.004c-.314 0-.57.273-.57.611 0 .338.256.612.57.612.315 0 .57-.274.57-.612 0-.338-.255-.611-.57-.611zM5.96 8.174a.264.264 0 0 1-.263.264H1.315a.264.264 0 0 1-.263-.264V1.318c0-.145.118-.264.263-.264h4.382c.145 0 .263.12.263.264v6.856zm-2.454 2.373a.702.702 0 0 1-.701-.703.701.701 0 1 1 1.402 0 .702.702 0 0 1-.701.703zM5.96 0H1.052C.47 0 0 .472 0 1.054v9.142c0 .582.47 1.054 1.052 1.054H5.96c.581 0 1.052-.473 1.052-1.054V1.054C7.012.472 6.542 0 5.96 0z"/>
</svg>
