<svg xmlns="http://www.w3.org/2000/svg" width="12" height="12" viewBox="0 0 12 12">
    <path fill="#D6578B" fill-rule="nonzero" d="M11 2.571a1 1 0 0 1 .709.274.878.878 0 0 1 .291.664v5.625c0 .26-.097.482-.291.664a1 1 0 0 1-.709.273h-.25a1 1 0 0 1-.708-.273L8 7.884v1.25c0 .26-.097.482-.292.664A.998.998 0 0 1 7 10.07H1a1 1 0 0 1-.708-.273A.878.878 0 0 1 0 9.134V3.509c0-.26.098-.482.292-.664A1 1 0 0 1 1 2.57h6c.278 0 .514.091.708.274A.877.877 0 0 1 8 3.509v1.25l2.042-1.914a1 1 0 0 1 .708-.274H11z"/>
</svg>
