<svg xmlns="http://www.w3.org/2000/svg" width="12" height="12" viewBox="0 0 12 12">
    <path fill="#999" fill-rule="nonzero" d="M3.6 5.038c1.16 0 2.1-.935 2.1-2.09 0-1.156-.94-2.09-2.1-2.09-1.16 0-2.1.934-2.1 2.09 0 1.155.94 2.09 2.1 2.09zm1.44.598h-.156a2.67 2.67 0 0 1-1.284.34c-.461 0-.893-.127-1.284-.34H2.16C.967 5.636 0 6.734 0 8.088v1.748c0 .564.403 1.021.9 1.021h5.4c.497 0 .9-.457.9-1.021V8.088c0-1.354-.968-2.452-2.16-2.452zM9 5.038c.994 0 1.8-.802 1.8-1.792 0-.989-.806-1.792-1.8-1.792s-1.8.803-1.8 1.792c0 .99.806 1.792 1.8 1.792zm.829.598a2.26 2.26 0 0 1-.829.17 2.26 2.26 0 0 1-.829-.17H8.1a1.9 1.9 0 0 0-1.044.327c.457.56.744 1.303.744 2.125v1.952c0 .047-.01.091-.011.136H11.1c.497 0 .9-1.593.9-2.157 0-1.317-.94-2.383-2.1-2.383h-.071z"/>
</svg>
